<svg width="74" height="65" viewBox="0 0 74 65" fill="none" xmlns="http://www.w3.org/2000/svg">
<path d="M70.3862 64.8558H3.60336C2.97083 64.8558 2.34945 64.6893 1.80167 64.373C1.25389 64.0567 0.799006 63.6018 0.482748 63.054C0.16649 62.5062 -4.01724e-06 61.8848 0 61.2523C4.01739e-06 60.6198 0.166506 59.9984 0.482771 59.4506L33.8724 1.79534C34.1891 1.24928 34.6438 0.796013 35.1908 0.480929C35.7379 0.165845 36.3581 0 36.9894 0C37.6206 0 38.2409 0.165845 38.7879 0.480929C39.3349 0.796013 39.7896 1.24928 40.1063 1.79534L73.4995 59.4506C73.8157 59.9981 73.9822 60.6192 73.9823 61.2514C73.9825 61.8836 73.8163 62.5048 73.5005 63.0525C73.1846 63.6001 72.7303 64.0551 72.183 64.3716C71.6357 64.6882 71.0148 64.8551 70.3826 64.8558H70.3862ZM33.3931 46.8385V54.0454H40.5928V46.8385H33.3931ZM33.3931 21.6143V39.6316H40.6V21.6143H33.3931Z" fill="#D3A500"/>
</svg>
