<svg id="Layer_1" data-name="Layer 1" xmlns="http://www.w3.org/2000/svg" viewBox="0 0 1024 1024"><defs><style>.cls-1{fill:#d64973;}.cls-2{fill:#233d9b;}</style></defs><title>Artboard 1 copyJY</title><path class="cls-1" d="M376.91,524.35c-.55,3.56-1,6-2.33,11.69C371.46,549.51,362,559.2,341,559.2c-18.6,0-27.39-10.91-25.05-27.62l.44-3.33h20l-.33,3.33c-1.11,10,2.45,12.92,8.13,12.92s9-3.56,10.69-9.69c.67-2.56,1.11-5,1.56-7.35l8.13-46.65h20Z"/><path class="cls-1" d="M439.83,557.64H419.78l1.56-8.46-6.68,6.57a28.42,28.42,0,0,1-14,3.45c-12.14,0-17.93-6.46-17.93-15.25A65.9,65.9,0,0,1,384,532.48l6.12-34.3h20L404.86,528a62.57,62.57,0,0,0-1.11,9.24c0,5,2,8.35,7.9,8.35,6.35,0,11.36-6.34,13.81-19.82l4.79-27.61h20Z"/><path class="cls-1" d="M503.07,516h-19.6c-.55-4.12-2.67-6.46-6-6.46-3.12,0-5,1.67-5,4.12,0,3.78,2.12,5.23,12,8.57,11.69,4,16.48,9.13,16.48,18,0,12.69-11.92,19.6-28.18,19.6s-26.72-6.68-27.39-20H465.1c.56,5.45,4.12,7.57,8.35,7.57,3.9,0,6.57-1.67,6.57-5s-2.56-5.57-12.92-9.25c-9.68-3.45-15.47-7.23-15.47-16.92,0-10.25,9-19.15,26.5-19.15C495.28,497.07,502.4,505.2,503.07,516Z"/><path class="cls-1" d="M528,533a34,34,0,0,0-.78,6.8c0,5.12,3.45,6.34,11.47,5.34l-2.23,12.58a64.27,64.27,0,0,1-13.91,1.45c-12.14,0-16.49-3.78-16.49-11.47a68.16,68.16,0,0,1,1.34-11.8l4.46-24.83h-9l2.22-12.48H514l2.79-15.36h20l-2.67,15.36h12.91l-2.22,12.48H531.91Z"/><path class="cls-2" d="M583.68,557.64h-20l5.24-29.51-18.71-47.32h21.38l10.58,30.73,20-30.73h22.16l-35.52,48Z"/><path class="cls-2" d="M669.42,523.12c0,19.16-12.58,36.08-37,36.08-19.26,0-29.17-10.8-29.17-26.5,0-19.15,12.58-36.08,37-36.08C659.51,496.62,669.42,507.42,669.42,523.12Zm-21.15.45c0-7.8-3-13.37-9.47-13.37-9.57,0-14.36,10.81-14.36,22.05,0,7.8,3,13.36,9.46,13.36C643.48,545.61,648.27,534.81,648.27,523.57Z"/><path class="cls-2" d="M727.21,557.64h-20l1.56-8.46L702,555.75a28.42,28.42,0,0,1-14,3.45c-12.13,0-17.92-6.46-17.92-15.25a65.72,65.72,0,0,1,1.33-11.47l6.13-34.3h20L692.25,528a62.86,62.86,0,0,0-1.12,9.24c0,5,2,8.35,7.91,8.35,6.35,0,11.36-6.34,13.81-19.82l4.79-27.61h20Z"/><path class="cls-2" d="M786.22,497l-2.78,16.36c-10.69-1.11-20.6,1-24.5,22.5l-3.89,21.82H735l10.36-59h20l-2,11.7,5.79-8.47a19.32,19.32,0,0,1,12.58-5.23A24.26,24.26,0,0,1,786.22,497Z"/><path class="cls-2" d="M832.32,516h-19.6c-.56-4.12-2.67-6.46-6-6.46-3.12,0-5,1.67-5,4.12,0,3.78,2.12,5.23,12,8.57,11.69,4,16.47,9.13,16.47,18,0,12.69-11.91,19.6-28.17,19.6s-26.72-6.68-27.39-20h19.71c.56,5.45,4.12,7.57,8.35,7.57,3.9,0,6.57-1.67,6.57-5s-2.56-5.57-12.92-9.25c-9.68-3.45-15.47-7.23-15.47-16.92,0-10.25,9-19.15,26.5-19.15C824.53,497.07,831.65,505.2,832.32,516Z"/><path class="cls-2" d="M854.81,545.51c0,8.35-5.46,13.69-13.36,13.69-5,0-9.36-2.89-9.36-8.57,0-8.35,5.46-13.7,13.37-13.7C850.58,536.93,854.81,539.83,854.81,545.51Z"/><polygon class="cls-2" points="176.3 452.99 260.51 452.99 218.41 522.99 176.3 452.99"/><polygon class="cls-1" points="257.91 571.41 215.28 571.41 283.65 452.99 326.28 452.99 257.91 571.41"/><path class="cls-1" d="M168.43,534h43.1l-18.75,31a13.12,13.12,0,0,1-11.23,6.33h0a13.11,13.11,0,0,1-13.12-13.12Z"/></svg>